<?xml version="1.0" encoding="utf-8"?>
<!-- Generator: Adobe Illustrator 27.3.1, SVG Export Plug-In . SVG Version: 6.00 Build 0)  -->
<svg version="1.1" id="Layer_1" xmlns="http://www.w3.org/2000/svg" xmlns:xlink="http://www.w3.org/1999/xlink" x="0px" y="0px"
	 viewBox="0 0 31.9 32" style="enable-background:new 0 0 31.9 32;" xml:space="preserve">
<style type="text/css">
	.st0{fill:url(#SVGID_1_);}
	.st1{fill:url(#SVGID_00000021112809941291340660000008730359879717035956_);}
	.st2{fill:url(#SVGID_00000092440329175963893210000011988679081786373013_);}
	.st3{fill:url(#SVGID_00000065772598650678787480000010202605449044818107_);}
	.st4{fill:#FFFFFF;}
	.st5{fill:url(#SVGID_00000090293334921212584860000013503684239032197515_);}
	.st6{fill:url(#SVGID_00000003795707012371476740000006678416808064867459_);}
	.st7{fill:url(#SVGID_00000067208031293847997430000018050248374647148221_);}
</style>
<g>
	<linearGradient id="SVGID_1_" gradientUnits="userSpaceOnUse" x1="2.8092" y1="22.326" x2="29.3874" y2="22.326">
		<stop  offset="0" style="stop-color:#FFEA83"/>
		<stop  offset="8.333001e-02" style="stop-color:#FFDD35"/>
		<stop  offset="1" style="stop-color:#FFA800"/>
	</linearGradient>
	<path class="st0" d="M27,31.2H5.2c-1.3,0-2.4-1.1-2.4-2.4v-13c0-1.3,1.1-2.4,2.4-2.4H27c1.3,0,2.4,1.1,2.4,2.4v13
		C29.4,30.1,28.3,31.2,27,31.2z"/>
	<g>
		<g>
			
				<linearGradient id="SVGID_00000124129323415169602780000016955690307526391467_" gradientUnits="userSpaceOnUse" x1="2.251" y1="22.3112" x2="30.4734" y2="22.3112">
				<stop  offset="0" style="stop-color:#41D1FF"/>
				<stop  offset="1" style="stop-color:#BD34FE"/>
			</linearGradient>
			<path style="fill:url(#SVGID_00000124129323415169602780000016955690307526391467_);" d="M27.3,32H5.5c-1.8,0-3.2-1.4-3.2-3.2
				V12.6h28.2v16.2C30.5,30.6,29,32,27.3,32z M3.5,13.9v14.9c0,1.1,0.9,2,2,2h21.8c1.1,0,2-0.9,2-2V13.9H3.5z"/>
		</g>
		<g>
			
				<linearGradient id="SVGID_00000045587002942274609590000015135951266578012855_" gradientUnits="userSpaceOnUse" x1="12.938" y1="22.9637" x2="21.2219" y2="22.9637">
				<stop  offset="0" style="stop-color:#41D1FF"/>
				<stop  offset="1" style="stop-color:#BD34FE"/>
			</linearGradient>
			<path style="fill:url(#SVGID_00000045587002942274609590000015135951266578012855_);" d="M12.9,28V17.9c0-0.3,0.3-0.4,0.5-0.3
				l7.6,5c0.2,0.1,0.2,0.4,0,0.6l-7.6,5.2C13.2,28.5,12.9,28.3,12.9,28z"/>
		</g>
		<g>
			
				<linearGradient id="SVGID_00000048469466755521968690000018005605836589081992_" gradientUnits="userSpaceOnUse" x1="2.061" y1="13.1334" x2="30.6634" y2="13.1334">
				<stop  offset="0" style="stop-color:#41D1FF"/>
				<stop  offset="1" style="stop-color:#BD34FE"/>
			</linearGradient>
			<path style="fill:url(#SVGID_00000048469466755521968690000018005605836589081992_);" d="M29.9,11.2h-27c-0.4,0-0.8,0.4-0.8,0.8
				v2.2c0,0.4,0.4,0.8,0.8,0.8h27c0.4,0,0.8-0.4,0.8-0.8V12C30.7,11.6,30.3,11.2,29.9,11.2z"/>
		</g>
		<g>
			<polygon class="st4" points="24.1,15.2 27.4,15.2 30,11 26.7,11 			"/>
		</g>
		<g>
			<polygon class="st4" points="17,15.2 20.3,15.2 22.9,11 19.6,11 			"/>
		</g>
		<g>
			<polygon class="st4" points="9.9,15.2 13.2,15.2 15.8,11 12.5,11 			"/>
		</g>
		<g>
			<polygon class="st4" points="2.8,15.2 6.1,15.2 8.7,11 5.4,11 			"/>
		</g>
		<g>
			
				<linearGradient id="SVGID_00000026161291558113718590000001425006621860320691_" gradientUnits="userSpaceOnUse" x1="1.2619" y1="13.082" x2="31.2853" y2="13.082">
				<stop  offset="0" style="stop-color:#41D1FF"/>
				<stop  offset="1" style="stop-color:#BD34FE"/>
			</linearGradient>
			<path style="fill:url(#SVGID_00000026161291558113718590000001425006621860320691_);" d="M29.9,15.7h-27c-0.8,0-1.4-0.6-1.4-1.4
				l-0.2-2.9c0-0.4,0.2-0.6,0.3-0.7c0.3-0.3,0.7-0.2,1-0.1c0.1,0,0.2,0,0.3,0h27c0.8,0,1.4,0.6,1.4,1.4v2.2
				C31.3,15,30.6,15.7,29.9,15.7z M2.5,11.8l0.1,2.4c0,0.1,0.1,0.2,0.2,0.2h27c0.1,0,0.2-0.1,0.2-0.2V12c0-0.1-0.1-0.2-0.2-0.2h-27
				C2.8,11.8,2.6,11.8,2.5,11.8z"/>
		</g>
		<g>
			
				<linearGradient id="SVGID_00000054960702761497428420000018060596779583159961_" gradientUnits="userSpaceOnUse" x1="1.2165" y1="6.2123" x2="29.3874" y2="6.2123">
				<stop  offset="0" style="stop-color:#41D1FF"/>
				<stop  offset="1" style="stop-color:#BD34FE"/>
			</linearGradient>
			<path style="fill:url(#SVGID_00000054960702761497428420000018060596779583159961_);" d="M28.8,4.3L2.9,11.8
				c-0.4,0.1-0.9-0.1-1-0.6L1.2,9.1c-0.1-0.4,0.1-0.9,0.6-1l25.9-7.4c0.4-0.1,0.9,0.1,1,0.6l0.6,2.1C29.5,3.8,29.2,4.2,28.8,4.3z"/>
		</g>
		<g>
			<polygon class="st4" points="22.2,2 25.3,1.1 29,4.5 25.8,5.4 			"/>
		</g>
		<g>
			<polygon class="st4" points="15.4,4 18.5,3.1 22.1,6.5 19,7.4 			"/>
		</g>
		<g>
			<polygon class="st4" points="8.5,6 11.7,5.1 15.3,8.4 12.2,9.3 			"/>
		</g>
		<g>
			<polygon class="st4" points="1.7,7.9 4.8,7 8.5,10.4 5.3,11.3 			"/>
		</g>
		<g>
			
				<linearGradient id="SVGID_00000143588154434390994050000000410016326819203774_" gradientUnits="userSpaceOnUse" x1="0.5947" y1="6.212" x2="30.0092" y2="6.212">
				<stop  offset="0" style="stop-color:#41D1FF"/>
				<stop  offset="1" style="stop-color:#BD34FE"/>
			</linearGradient>
			<path style="fill:url(#SVGID_00000143588154434390994050000000410016326819203774_);" d="M2.6,12.4c-0.6,0-1.2-0.4-1.4-1L0.7,9.3
				c-0.2-0.8,0.2-1.6,1-1.8l25.9-7.4C27.9,0,28.3,0,28.7,0.2C29,0.4,29.2,0.7,29.3,1L30,3.2c0.2,0.8-0.2,1.6-1,1.8h0L3,12.4
				C2.9,12.4,2.8,12.4,2.6,12.4z M28,1.2C27.9,1.2,27.9,1.2,28,1.2L2,8.7c-0.1,0-0.1,0.1-0.1,0.1c0,0,0,0.1,0,0.1L2.5,11
				c0,0.1,0.1,0.1,0.1,0.1c0,0,0.1,0,0.1,0l25.9-7.4c0.1,0,0.2-0.1,0.1-0.2l-0.6-2.1C28.1,1.3,28.1,1.3,28,1.2C28,1.3,28,1.2,28,1.2
				z"/>
		</g>
	</g>
</g>
</svg>
